<?xml version="1.0" encoding="UTF-8" standalone="no"?>
<svg
   xmlns:dc="http://purl.org/dc/elements/1.1/"
   xmlns:cc="http://creativecommons.org/ns#"
   xmlns:rdf="http://www.w3.org/1999/02/22-rdf-syntax-ns#"
   xmlns:svg="http://www.w3.org/2000/svg"
   xmlns="http://www.w3.org/2000/svg"
   xmlns:sodipodi="http://sodipodi.sourceforge.net/DTD/sodipodi-0.dtd"
   xmlns:inkscape="http://www.inkscape.org/namespaces/inkscape"
   class="icon"
   width="48px"
   height="48.00px"
   viewBox="0 0 1024 1024"
   version="1.1"
   id="svg2"
   inkscape:version="0.91 r13725"
   sodipodi:docname="OverallSituation_02.svg">
  <metadata
     id="metadata10">
    <rdf:RDF>
      <cc:Work
         rdf:about="">
        <dc:format>image/svg+xml</dc:format>
        <dc:type
           rdf:resource="http://purl.org/dc/dcmitype/StillImage" />
        <dc:title></dc:title>
      </cc:Work>
    </rdf:RDF>
  </metadata>
  <defs
     id="defs8" />
  <sodipodi:namedview
     pagecolor="#ffffff"
     bordercolor="#666666"
     borderopacity="1"
     objecttolerance="10"
     gridtolerance="10"
     guidetolerance="10"
     inkscape:pageopacity="0"
     inkscape:pageshadow="2"
     inkscape:window-width="1366"
     inkscape:window-height="715"
     id="namedview6"
     showgrid="false"
     showguides="true"
     inkscape:guide-bbox="true"
     inkscape:zoom="4.9166667"
     inkscape:cx="24"
     inkscape:cy="23.79661"
     inkscape:window-x="-8"
     inkscape:window-y="-8"
     inkscape:window-maximized="1"
     inkscape:current-layer="svg2">
    <sodipodi:guide
       position="1128.1356,1024"
       orientation="0,1"
       id="guide4138" />
    <sodipodi:guide
       position="0,477.28814"
       orientation="1,0"
       id="guide4140" />
    <sodipodi:guide
       position="1024,-26.033898"
       orientation="1,0"
       id="guide4142" />
    <sodipodi:guide
       position="967.59322,-4.3389831"
       orientation="0,1"
       id="guide4144" />
  </sodipodi:namedview>
  <path
     d="M466.817 38.833h79.033c243.453 37.001 383.556 178.012 420.316 423.058v79.55C929.406 786.482 789.309 927.499 545.85 964.5h-79.033C223.364 927.499 83.261 786.488 46.5 541.441v-79.55C83.261 216.845 223.364 75.834 466.817 38.833zM341.081 261.21c43.976 9.976 91.685 16.193 145.494 16.271-1.197-65.689 2.394-136.197-1.796-198.874-79.959 28.601-113.943 103.472-143.698 182.603z m185.011 16.272c53.405-1.087 104.564-4.436 145.494-18.08-31.286-77.59-63.589-154.155-145.494-180.794v198.874z m-326.913-63.279c33.077 14.317 65.487 29.304 104.181 37.967 18.139-61.895 52.636-116.966 84.422-159.099-76.499 26.657-143.251 63.124-188.603 121.132z m510.128 37.967c38.872-8.483 70.902-23.853 104.181-37.967-45.278-56.877-114.85-98.943-190.399-119.324 39.085 42.017 66.03 96.253 86.218 157.291z m-537.071-9.039c-47.571 61.198-80.687 136.945-88.015 238.648h183.215c0.181-72.136 10.206-134.363 25.147-191.642-44.239-11.518-84.251-27.293-120.347-47.006z m668.195 0c-35.27 21.149-79.031 33.75-120.347 48.814 15.586 56.027 24.733 118.535 25.146 189.834h183.215c-7.328-101.704-40.443-177.45-88.014-238.648zM332.1 299.177c-18.23 51.557-24.162 115.495-26.943 182.602h181.418V317.256c-55.329-2.164-108.19-6.811-154.475-18.079z m193.992 18.079v164.523H707.51c-2.781-67.107-8.713-131.045-26.943-182.602-46.202 11.352-99.268 15.793-154.475 18.079zM84.221 521.553c6.606 101.828 41.437 175.246 86.219 238.648 37.129-19.88 79.941-34.04 122.143-48.814-15.586-56.027-24.734-118.535-25.147-189.834H84.221z m222.731 0c-2.603 64.092 9.773 128.771 23.351 182.603 47.348-10.8 100.265-15.995 156.271-18.08V521.554l-179.622-0.001z m220.936 0c-4.189 51.227-0.6 110.283-1.796 164.522 56.126 1.965 108.841 7.363 156.271 18.08 14.69-54.519 23.331-115.126 25.146-182.603l-179.621 0.001z m217.343 0c-0.181 72.136-10.205 134.363-25.146 191.642 43.342 11.818 84.231 26.106 118.551 47.007 50.354-59 81.762-137.067 89.811-238.648l-183.216-0.001zM341.081 743.93c31.286 77.59 63.588 154.155 145.494 180.794V725.851c-53.405 1.087-104.565 4.436-145.494 18.079z m186.807-18.079c-2.993 62.074-2.993 136.799 0 198.873 79.959-28.6 113.943-103.472 143.698-182.602-43.466-9.886-90.656-16.024-143.698-16.271zM389.579 908.453c-39.086-42.017-66.032-96.252-86.219-157.291-38.872 8.483-70.902 23.854-104.181 37.967 45.279 56.878 114.849 98.943 190.4 119.324z m235.305 1.808c76.5-26.657 143.252-63.124 188.604-121.133-33.078-14.316-65.488-29.303-104.181-37.966-18.14 61.895-52.637 116.967-84.423 159.099z"
     id="path4" />
  <rect
     style="opacity:0.66000001;fill:none;fill-opacity:1;stroke:#000000;stroke-width:21.33333333;stroke-miterlimit:4;stroke-dasharray:none;stroke-opacity:1"
     id="rect4146"
     width="1024"
     height="1028.339"
     x="0"
     y="0" />
</svg>
