<?xml version="1.0" encoding="UTF-8" standalone="no"?>
<svg
   xmlns:dc="http://purl.org/dc/elements/1.1/"
   xmlns:cc="http://creativecommons.org/ns#"
   xmlns:rdf="http://www.w3.org/1999/02/22-rdf-syntax-ns#"
   xmlns:svg="http://www.w3.org/2000/svg"
   xmlns="http://www.w3.org/2000/svg"
   xmlns:sodipodi="http://sodipodi.sourceforge.net/DTD/sodipodi-0.dtd"
   xmlns:inkscape="http://www.inkscape.org/namespaces/inkscape"
   class="icon"
   width="48px"
   height="48.00px"
   viewBox="0 0 1024 1024"
   version="1.1"
   id="svg2"
   inkscape:version="0.91 r13725"
   sodipodi:docname="OverallSituation_03.svg">
  <metadata
     id="metadata10">
    <rdf:RDF>
      <cc:Work
         rdf:about="">
        <dc:format>image/svg+xml</dc:format>
        <dc:type
           rdf:resource="http://purl.org/dc/dcmitype/StillImage" />
        <dc:title></dc:title>
      </cc:Work>
    </rdf:RDF>
  </metadata>
  <defs
     id="defs8" />
  <sodipodi:namedview
     pagecolor="#ffffff"
     bordercolor="#666666"
     borderopacity="1"
     objecttolerance="10"
     gridtolerance="10"
     guidetolerance="10"
     inkscape:pageopacity="0"
     inkscape:pageshadow="2"
     inkscape:window-width="1366"
     inkscape:window-height="715"
     id="namedview6"
     showgrid="false"
     showguides="true"
     inkscape:guide-bbox="true"
     inkscape:zoom="4.9166667"
     inkscape:cx="21.254237"
     inkscape:cy="23.79661"
     inkscape:window-x="-8"
     inkscape:window-y="-8"
     inkscape:window-maximized="1"
     inkscape:current-layer="svg2">
    <sodipodi:guide
       position="1128.1356,1024"
       orientation="0,1"
       id="guide4138" />
    <sodipodi:guide
       position="0,477.28814"
       orientation="1,0"
       id="guide4140" />
    <sodipodi:guide
       position="1024,-26.033898"
       orientation="1,0"
       id="guide4142" />
    <sodipodi:guide
       position="967.59322,-4.3389831"
       orientation="0,1"
       id="guide4144" />
  </sodipodi:namedview>
  <rect
     style="opacity:1;fill:#999999;fill-opacity:0.60000002;stroke:#000000;stroke-width:21.33333397;stroke-miterlimit:4;stroke-dasharray:none;stroke-opacity:1"
     id="rect4146"
     width="1024"
     height="1028.339"
     x="8.6779099"
     y="4.3389912" />
  <path
     d="m 481.1619,55.674984 79.033,0 c 243.453,37.000999 383.556,178.011996 420.316,423.057996 l 0,79.55 c -36.76,245.041 -176.857,386.058 -420.316,423.05901 l -79.033,0 C 237.70891,944.34098 97.605917,803.32998 60.844917,558.28298 l 0,-79.55 C 97.605917,233.68698 237.70891,92.675983 481.1619,55.674984 Z M 355.42591,278.05198 c 43.976,9.976 91.685,16.193 145.49399,16.271 -1.197,-65.689 2.394,-136.19699 -1.796,-198.873997 C 419.16491,124.04999 385.18091,198.92099 355.42591,278.05198 Z m 185.01099,16.272 c 53.405,-1.087 104.564,-4.436 145.494,-18.08 -31.286,-77.58999 -63.589,-154.15499 -145.494,-180.793997 l 0,198.873997 z m -326.91299,-63.279 c 33.077,14.317 65.487,29.304 104.181,37.967 18.139,-61.89499 52.636,-116.96599 84.422,-159.099 -76.499,26.65701 -143.251,63.12401 -188.603,121.132 z m 510.12799,37.967 c 38.872,-8.483 70.902,-23.853 104.181,-37.967 -45.278,-56.87699 -114.85,-98.94299 -190.399,-119.324 39.085,42.01701 66.03,96.25301 86.218,157.291 z m -537.07099,-9.039 c -47.571,61.198 -80.687,136.945 -88.014993,238.648 l 183.214993,0 c 0.181,-72.136 10.206,-134.363 25.147,-191.642 -44.239,-11.518 -84.251,-27.293 -120.347,-47.006 z m 668.19499,0 c -35.27,21.149 -79.031,33.75 -120.347,48.814 15.586,56.027 24.733,118.535 25.146,189.834 l 183.215,0 c -7.328,-101.704 -40.443,-177.45 -88.014,-238.648 z m -508.33099,56.046 c -18.23,51.557 -24.162,115.495 -26.943,182.602 l 181.41799,0 0,-164.523 c -55.32899,-2.164 -108.18999,-6.811 -154.47499,-18.079 z m 193.99199,18.079 0,164.523 181.418,0 c -2.781,-67.107 -8.713,-131.045 -26.943,-182.602 -46.202,11.352 -99.268,15.793 -154.475,18.079 z m -441.870983,204.297 c 6.605993,101.828 41.436993,175.246 86.218993,238.648 37.129,-19.88 79.941,-34.04 122.143,-48.814 -15.586,-56.027 -24.734,-118.535 -25.147,-189.834 l -183.214993,0 z m 222.730993,0 c -2.603,64.092 9.773,128.771 23.351,182.603 47.348,-10.8 100.265,-15.995 156.27099,-18.08 l 0,-164.522 -179.62199,-10e-4 z m 220.93599,0 c -4.189,51.227 -0.6,110.283 -1.796,164.522 56.126,1.965 108.841,7.363 156.271,18.08 14.69,-54.519 23.331,-115.126 25.146,-182.603 l -179.621,10e-4 z m 217.343,0 c -0.181,72.136 -10.205,134.363 -25.146,191.642 43.342,11.818 84.231,26.106 118.551,47.007 50.354,-59 81.762,-137.067 89.811,-238.648 l -183.216,-10e-4 z m -404.14999,222.377 c 31.286,77.59 63.588,154.155 145.49399,180.794 l 0,-198.873 c -53.40499,1.087 -104.56499,4.436 -145.49399,18.079 z m 186.80699,-18.079 c -2.993,62.074 -2.993,136.799 0,198.873 79.959,-28.6 113.943,-103.472 143.698,-182.602 -43.466,-9.886 -90.656,-16.024 -143.698,-16.271 z m -138.30899,182.602 c -39.086,-42.017 -66.032,-96.252 -86.219,-157.291 -38.872,8.483 -70.902,23.854 -104.181,37.967 45.279,56.878 114.849,98.943 190.4,119.324 z m 235.30499,1.808 c 76.5,-26.657 143.252,-63.124 188.604,-121.133 -33.078,-14.316 -65.488,-29.303 -104.181,-37.966 -18.14,61.895 -52.637,116.967 -84.423,159.099 z"
     id="path4"
     inkscape:connector-curvature="0" />
</svg>
